<?xml version="1.0" encoding="utf-8"?>
<!-- Generator: Adobe Illustrator 24.0.2, SVG Export Plug-In . SVG Version: 6.00 Build 0)  -->
<svg version="1.1" id="Capa_1" xmlns="http://www.w3.org/2000/svg" xmlns:xlink="http://www.w3.org/1999/xlink" x="0px" y="0px"
	 viewBox="0 0 141.7 56.7" style="enable-background:new 0 0 141.7 56.7;" xml:space="preserve">
<style type="text/css">
	.st0{fill:#FFFFFF;}
</style>
<g>
	<path class="st0" d="M63.4,53.8L45.1,2.9H30.9C35.7,19,46.2,53.8,46.2,53.8H63.4z"/>
	<path class="st0" d="M36.2,23.9l-9.1,30H10.3c2.4-7.3,4.7-14.1,7-20.9c3.2-9.3,6.9-20.7,10.2-30h2.4L36.2,23.9z"/>
	<path class="st0" d="M80.6,53.8c-5.5,0-10.7,0-16.1,0c0-12.3,0-24.7,0-37c5.3,0,10.6,0,16.1,0C80.6,29.1,80.6,41.3,80.6,53.8z"/>
	<path class="st0" d="M80.6,15.7c-5.5,0-10.8,0-16.2,0c0-4.2,0-8.6,0-12.9c5.3,0,10.7,0,16.2,0C80.6,7,80.6,11.4,80.6,15.7z"/>
	<path class="st0" d="M114.8,53.8c-5.4,0-10.6,0-16.2,0c0-12.6,0-25.1,0-38.1c-5.8,0-11.2,0-16.9,0c0-4.4,0-8.6,0-12.9
		c11,0,21.9,0,33,0C114.8,19.7,114.8,36.7,114.8,53.8z"/>
	<path class="st0" d="M131.5,15.7c-5.3,0-10.4,0-15.6,0c0-4.3,0-8.6,0-12.9c5.2,0,10.3,0,15.6,0C131.5,7,131.5,11.3,131.5,15.7z"/>
</g>
</svg>
